#!OML:ASF E:\id_vita\Project 1\Capture day 1\Session 1\Male1.ASF
:FULLY-SPECIFIED
:DEGREES
596
root -23.0051 14.8239 -2.0306 543.923 -32.4539 -536.713
lowerback 7.27305 -2.32952 -9.49714
upperback 3.09977 -4.17193 -4.02217
thorax -0.491189 -2.29561 1.43263
lowerneck -6.81891 -1.17474 1.42836
upperneck -22.2751 -3.31103 4.46466
head -5.58059 -2.97124 1.35763
rclavicle 7.55382e-014 1.59028e-014
rhumerus -31.2954 1.61481 -92.2068
rradius 35.5641
rwrist 2.07929
rhand -19.6573 36.249
rfingers 7.12502
rthumb 6.67069 6.37404
lclavicle 7.55382e-014 1.59028e-014
lhumerus -18.8241 19.7574 72.682
lradius 17.4874
lwrist -11.2701
lhand -10.4565 47.2884
lfingers 7.12502
lthumb 15.544 76.6837
rfemur -41.5389 -5.04309 28.5399
rtibia 48.0523
rfoot -12.5995 5.92123
rtoes 34.3275
lfemur -21.5986 19.197 -21.1735
ltibia 55.7859
lfoot -36.4854 -12.5781
ltoes 44.7869
597
root -23.0155 14.8124 -2.05673 543.96 -32.5948 -536.688
lowerback 7.14211 -2.36389 -9.42932
upperback 3.19419 -4.19558 -4.08071
thorax -0.327324 -2.31801 1.32484
lowerneck -6.93386 -1.12584 1.63333
upperneck -22.3512 -3.28832 4.37948
head -5.59254 -2.98167 1.29637
rclavicle -2.38542e-014 9.54166e-014
rhumerus -30.9524 1.86798 -92.4093
rradius 35.4585
rwrist 1.83099
rhand -19.633 36.2312
rfingers 7.12502
rthumb 6.69415 6.357
lclavicle -2.38542e-014 9.54166e-014
lhumerus -18.6622 19.8475 72.5992
lradius 17.3385
lwrist -11.4758
lhand -10.6712 47.0004
lfingers 7.12502
lthumb 15.3372 76.4116
rfemur -41.6843 -5.34294 28.6527
rtibia 48.3637
rfoot -12.7148 6.08539
rtoes 34.1802
lfemur -21.6135 18.9877 -21.101
ltibia 55.9661
lfoot -36.705 -12.5635
ltoes 44.5726
598
root -23.0234 14.8087 -2.083 543.725 -32.6837 -536.316
lowerback 7.1385 -2.42251 -9.10171
upperback 3.21366 -4.24297 -4.06352
thorax -0.323902 -2.33655 1.16636
lowerneck -6.83584 -1.08317 1.73761
upperneck -22.3512 -3.21235 4.42093
head -5.61046 -2.9532 1.2917
rclavicle 2.3059e-014 -6.04305e-014
rhumerus -30.9729 2.10564 -92.6359
rradius 35.5805
rwrist 1.5879
rhand -19.5135 36.3045
rfingers 7.12502
rthumb 6.8095 6.43401
lclavicle 2.3059e-014 -6.04305e-014
lhumerus -18.7796 20.2261 72.3786
lradius 17.1962
lwrist -11.8371
lhand -11.2724 46.5287
lfingers 7.12502
lthumb 14.758 75.9833
rfemur -41.6315 -5.25805 29.0039
rtibia 48.6883
rfoot -12.9987 5.74791
rtoes 33.4249
lfemur -21.5134 18.9271 -20.6696
ltibia 56.1048
lfoot -36.8606 -12.5323
ltoes 44.0163
599
root -23.0327 14.7947 -2.10867 543.753 -32.6599 -536.407
lowerback 7.14964 -2.35199 -9.10592
upperback 3.21411 -4.14982 -4.04197
thorax -0.335592 -2.2897 1.1863
lowerneck -6.95398 -1.24861 1.36762
upperneck -22.3014 -3.42528 4.50599
head -5.56362 -3.03047 1.38226
rclavicle -1.43125e-014 6.04305e-014
rhumerus -31.0684 2.39446 -92.58
rradius 35.9127
rwrist 1.13916
rhand -19.4467 36.2105
rfingers 7.12502
rthumb 6.87392 6.34213
lclavicle -1.43125e-014 6.04305e-014
lhumerus -18.8589 20.4723 72.5424
lradius 17.1749
lwrist -12.1703
lhand -11.5847 46.3461
lfingers 7.12502
lthumb 14.4572 75.8225
rfemur -41.8247 -6.85872 29.4206
rtibia 49.0828
rfoot -13.0876 7.65444
rtoes 35.0489
lfemur -21.4242 18.9468 -20.6929
ltibia 56.2431
lfoot -37.0679 -12.3677
ltoes 43.0777
600
root -23.0415 14.7752 -2.13562 543.627 -32.7371 -536.34
lowerback 7.19089 -2.04554 -8.85243
upperback 3.38152 -3.71068 -3.87781
thorax -0.226748 -2.07637 1.18824
lowerneck -7.57014 -1.80217 0.57948
upperneck -22.2651 -4.23193 4.51915
head -5.42354 -3.37306 1.5234
rclavicle -3.18055e-015 7.63333e-014
rhumerus -30.709 2.71537 -92.0776
rradius 36.0378
rwrist 0.110862
rhand -19.6725 36.1641
rfingers 7.12502
rthumb 6.65598 6.28866
lclavicle -3.18055e-015 7.63333e-014
lhumerus -18.3354 20.4137 73.4514
lradius 17.0015
lwrist -12.8139
lhand -11.7423 46.4434
lfingers 7.12502
lthumb 14.3054 75.9306
rfemur -41.5946 -5.30198 28.9894
rtibia 49.2471
rfoot -13.2972 5.93947
rtoes 33.134
lfemur -21.3022 18.9007 -20.5251
ltibia 56.4519
lfoot -37.3415 -12.0925
ltoes 42.0534
